<svg xmlns="http://www.w3.org/2000/svg" viewBox="0 0 200 200" width="200" height="200">
  <g fill="#1f2937">
    <!-- wreath, right branch: thin flat leaves standing in for "pin" shapes -->
    <ellipse cx="120.19" cy="175.34" rx="10" ry="2.5" transform="rotate(75 120.19 175.34)"/>
    <ellipse cx="139.0" cy="167.55" rx="10" ry="2.5" transform="rotate(60 139.0 167.55)"/>
    <ellipse cx="155.15" cy="155.15" rx="10" ry="2.5" transform="rotate(45 155.15 155.15)"/>
    <ellipse cx="167.55" cy="139.0" rx="10" ry="2.5" transform="rotate(30 167.55 139.0)"/>
    <ellipse cx="175.34" cy="120.19" rx="10" ry="2.5" transform="rotate(15 175.34 120.19)"/>
    <ellipse cx="178.0" cy="100.0" rx="10" ry="2.5" transform="rotate(0 178.0 100.0)"/>
    <ellipse cx="175.34" cy="79.81" rx="10" ry="2.5" transform="rotate(-15 175.34 79.81)"/>
    <ellipse cx="167.55" cy="61.0" rx="10" ry="2.5" transform="rotate(-30 167.55 61.0)"/>
    <ellipse cx="155.15" cy="44.85" rx="10" ry="2.5" transform="rotate(-45 155.15 44.85)"/>
    <ellipse cx="139.0" cy="32.45" rx="10" ry="2.5" transform="rotate(-60 139.0 32.45)"/>

    <!-- wreath, left branch (mirrored) -->
    <ellipse cx="79.81" cy="175.34" rx="10" ry="2.5" transform="rotate(105 79.81 175.34)"/>
    <ellipse cx="61.0" cy="167.55" rx="10" ry="2.5" transform="rotate(120 61.0 167.55)"/>
    <ellipse cx="44.85" cy="155.15" rx="10" ry="2.5" transform="rotate(135 44.85 155.15)"/>
    <ellipse cx="32.45" cy="139.0" rx="10" ry="2.5" transform="rotate(150 32.45 139.0)"/>
    <ellipse cx="24.66" cy="120.19" rx="10" ry="2.5" transform="rotate(165 24.66 120.19)"/>
    <ellipse cx="22.0" cy="100.0" rx="10" ry="2.5" transform="rotate(180 22.0 100.0)"/>
    <ellipse cx="24.66" cy="79.81" rx="10" ry="2.5" transform="rotate(195 24.66 79.81)"/>
    <ellipse cx="32.45" cy="61.0" rx="10" ry="2.5" transform="rotate(210 32.45 61.0)"/>
    <ellipse cx="44.85" cy="44.85" rx="10" ry="2.5" transform="rotate(225 44.85 44.85)"/>
    <ellipse cx="61.0" cy="32.45" rx="10" ry="2.5" transform="rotate(240 61.0 32.45)"/>

    <!-- chip-temple: pediment -->
    <rect x="65" y="62" width="70" height="14" rx="2"/>
    <!-- chip-temple: columns / pins -->
    <rect x="71.0" y="76" width="6" height="52"/>
    <rect x="81.4" y="76" width="6" height="52"/>
    <rect x="91.8" y="76" width="6" height="52"/>
    <rect x="102.2" y="76" width="6" height="52"/>
    <rect x="112.6" y="76" width="6" height="52"/>
    <rect x="123.0" y="76" width="6" height="52"/>
    <!-- chip-temple: base -->
    <rect x="62" y="128" width="76" height="8" rx="1"/>
  </g>
</svg>
